# xmcd CD database file
#
# Track frame offsets:
#	150
#	21497
#	37838
#	56608
#	63741
#	76257
#	84598
#	103712
#	113117
#	129372
#	144638
#	158167
#	174099
#	184957
#	199522
#	206290
#	223077
#	237118
#	246217
#	260630
#	280333
#	301513
#
# Disc length: 4240 seconds
#
# Revision: 0
# Processed by: cddbd v1.5.2PL0 Copyright (c) Steve Scherf et al.
# Submitted via: CDex 1.70beta2
#
DISCID=30108e16
DTITLE=オルゴール - Ａ ＭＵＳＩＣ ＢＯＸ ＨＥＡＬＳ ＹＯＵ　宮崎アニメーション映画作品集
DYEAR=1900
DGENRE=イージーリスニング
TTITLE0=風の谷のナウシカ
TTITLE1=鳥の人
TTITLE2=君をのせて
TTITLE3=シータの決意
TTITLE4=さんぽ
TTITLE5=塚森の大樹
TTITLE6=となりのトトロ
TTITLE7=ルージュの伝言
TTITLE8=海の見える街
TTITLE9=やさしさに包まれたなら
TTITLE10=さくらんぼの実る頃
TTITLE11=時代の風 （人が人でいられた時）
TTITLE12=ピッコロの女たち
TTITLE13=アシタカせっ記
TTITLE14=タタラ踏む女達(エボシタタラうた)
TTITLE15=もののけ姫
TTITLE16=あの夏へ
TTITLE17=竜の少年
TTITLE18=いつも何度でも
TTITLE19=人生のメリーゴーランド
TTITLE20=世界の約束
TTITLE21=テルーの唄
EXTD=
EXTT0=
EXTT1=
EXTT2=
EXTT3=
EXTT4=
EXTT5=
EXTT6=
EXTT7=
EXTT8=
EXTT9=
EXTT10=
EXTT11=
EXTT12=
EXTT13=
EXTT14=
EXTT15=
EXTT16=
EXTT17=
EXTT18=
EXTT19=
EXTT20=
EXTT21=
PLAYORDER=
